<svg id="Group_38" data-name="Group 38" xmlns="http://www.w3.org/2000/svg" xmlns:xlink="http://www.w3.org/1999/xlink" width="109.966" height="393.849" viewBox="0 0 109.966 393.849">
  <defs>
    <clipPath id="clip-path">
      <path id="Path_1" data-name="Path 1" d="M108.913,0C102.373,70.385,34.2,78.908,3.845,126.029-.23,132.355.372,144.473.093,156.263Q.043,158.3,0,160.271a26.185,26.185,0,0,0,2.29-4.115C14.03,105.766,117.812,101.263,108.913,0Z" fill="none"/>
    </clipPath>
    <linearGradient id="linear-gradient" x1="0.002" y1="2.457" x2="0.01" y2="2.457" gradientUnits="objectBoundingBox">
      <stop offset="0" stop-color="#9d6329"/>
      <stop offset="1" stop-color="#ac8938"/>
    </linearGradient>
    <clipPath id="clip-path-2">
      <path id="Path_2" data-name="Path 2" d="M3.845,265.619C-.23,271.945.372,284.063.093,295.853Q.043,297.89,0,299.861l2.29-4.116c11.74-50.389,115.522-54.892,106.623-156.155C102.373,209.975,34.2,218.5,3.845,265.619" fill="none"/>
    </clipPath>
    <linearGradient id="linear-gradient-2" x1="0.002" y1="1.586" x2="0.01" y2="1.586" xlink:href="#linear-gradient"/>
    <clipPath id="clip-path-3">
      <path id="Path_3" data-name="Path 3" d="M105.609,110.338a13.919,13.919,0,0,0,1-1.917C92.872,166.116,32.044,176.589,3.845,220.364a14.157,14.157,0,0,0-1.005,1.918c13.743-57.695,74.569-68.168,102.769-111.944m1.555-30.126C95.477,130.377-7.417,135.078.445,235.031.168,239.916.218,245.288.093,250.6q-.05,2.035-.093,4.007l2.29-4.114c11.688-50.166,114.581-54.867,106.719-154.821.276-4.884.227-10.256.353-15.567q.046-2.037.092-4.007a25.94,25.94,0,0,0-2.29,4.115" fill="none"/>
    </clipPath>
    <linearGradient id="linear-gradient-3" x1="0.06" y1="1.78" x2="0.068" y2="1.78" xlink:href="#linear-gradient"/>
    <clipPath id="clip-path-4">
      <path id="Path_4" data-name="Path 4" d="M105.609,249.582a14.049,14.049,0,0,0,1-1.918C92.872,305.358,32.044,315.832,3.845,359.607a14.157,14.157,0,0,0-1.005,1.918c13.743-57.7,74.569-68.168,102.769-111.943m1.555-30.128C95.477,269.619-7.417,274.321.445,374.274.168,379.158.218,384.53.093,389.841q-.05,2.037-.093,4.008l2.29-4.115c11.688-50.165,114.581-54.867,106.719-154.821.276-4.884.227-10.256.353-15.566q.046-2.037.092-4.008Z" fill="none"/>
    </clipPath>
    <linearGradient id="linear-gradient-4" x1="0.06" y1="1" x2="0.068" y2="1" xlink:href="#linear-gradient"/>
    <clipPath id="clip-path-5">
      <path id="Path_5" data-name="Path 5" d="M18,380.625h1.134a3.164,3.164,0,0,1,2.252.661,3.73,3.73,0,0,1,.673,2.619q0,2.461-.572,3.138t-2.614.675H18Zm0-7.01h1.2c1.042,0,1.716.208,2.023.629a4.547,4.547,0,0,1,.459,2.468c0,1.468-.189,2.363-.567,2.679a3.689,3.689,0,0,1-2.246.478H18Zm-5.645-.758v.758h1.927v14.1H12.352v.758h7.822a7.2,7.2,0,0,0,4.491-1.183,3.773,3.773,0,0,0,1.519-3.139q0-3.283-4.728-3.912V380.2A5.147,5.147,0,0,0,24.7,378.8a3.288,3.288,0,0,0-.279-4.835,5.858,5.858,0,0,0-4.008-1.112Z" fill="none"/>
    </clipPath>
    <linearGradient id="linear-gradient-5" x1="-0.893" y1="1.344" x2="-0.821" y2="1.344" xlink:href="#linear-gradient"/>
    <clipPath id="clip-path-6">
      <path id="Path_6" data-name="Path 6" d="M37.85,372.857v.758h1.044c.574,0,.9.069.963.208a2.963,2.963,0,0,1,.1,1.015v8.246a6.2,6.2,0,0,1-.51,2.952,3.213,3.213,0,0,1-1.406,1.3,4.594,4.594,0,0,1-2.007.432,3.246,3.246,0,0,1-2.336-.823q-.863-.822-.862-3.243V373.615h2.086v-.758h-7.8v.758h2v9.945a8.519,8.519,0,0,0,.209,2,3.638,3.638,0,0,0,1.026,1.67,4.4,4.4,0,0,0,2.1,1.135,10.956,10.956,0,0,0,2.647.322,6.514,6.514,0,0,0,3.828-.908,3.727,3.727,0,0,0,1.531-2.069,11.19,11.19,0,0,0,.289-2.695V374.93a1.926,1.926,0,0,1,.192-1.111c.128-.136.477-.2,1.044-.2H42.7v-.758Z" fill="none"/>
    </clipPath>
    <linearGradient id="linear-gradient-6" x1="-1.741" y1="1.326" x2="-1.677" y2="1.326" xlink:href="#linear-gradient"/>
    <clipPath id="clip-path-7">
      <path id="Path_7" data-name="Path 7" d="M52.342,372.857v.758h1.905v6.393H49.235v-6.393h1.927v-.758H43.589v.758h1.927v14.1H43.589v.758h7.573v-.758H49.235v-6.894h5.012v6.894H52.342v.758h7.55v-.758H57.966v-14.1h1.926v-.758Z" fill="none"/>
    </clipPath>
    <linearGradient id="linear-gradient-7" x1="-2.674" y1="1.344" x2="-2.612" y2="1.344" xlink:href="#linear-gradient"/>
    <clipPath id="clip-path-8">
      <path id="Path_8" data-name="Path 8" d="M66.6,373.615h1.656a2.694,2.694,0,0,1,1.892.525,3.663,3.663,0,0,1,.545,2.461,3.863,3.863,0,0,1-.579,2.587,2.958,2.958,0,0,1-2.074.563H66.6Zm-5.636-.758v.758h1.928v14.1H60.959v.758h7.62v-.758H66.6V380.51h.817a2.282,2.282,0,0,1,1.95.721,6.273,6.273,0,0,1,.606,3.11,4.36,4.36,0,0,0,1.14,3.3,4.214,4.214,0,0,0,2.835.908,5.116,5.116,0,0,0,2.46-.594v-.884a2.679,2.679,0,0,1-1.281.386.8.8,0,0,1-.731-.317,4,4,0,0,1-.216-1.636,10.193,10.193,0,0,0-.25-2.275,3.368,3.368,0,0,0-1.145-1.74,6.926,6.926,0,0,0-2.761-1.262v-.046a7.3,7.3,0,0,0,3.675-1.306,2.983,2.983,0,0,0,1.224-2.387,3.287,3.287,0,0,0-1.339-2.474q-1.336-1.149-5-1.153Z" fill="none"/>
    </clipPath>
    <linearGradient id="linear-gradient-8" x1="-3.947" y1="1.338" x2="-3.882" y2="1.338" xlink:href="#linear-gradient"/>
    <clipPath id="clip-path-9">
      <path id="Path_9" data-name="Path 9" d="M83.562,377.889l2,5.417h-4.17Zm1.271-5.323L79.5,386a4.715,4.715,0,0,1-.75,1.412,1.7,1.7,0,0,1-1.179.3h-.443v.758h4.9v-.758h-.839c-.756,0-1.134-.2-1.134-.619a4.291,4.291,0,0,1,.383-1.387l.641-1.6h4.788l1.334,3.61H85.166v.758H92.65v-.758H91.075l-5.587-15.152Z" fill="none"/>
    </clipPath>
    <linearGradient id="linear-gradient-9" x1="-4.969" y1="1.338" x2="-4.904" y2="1.338" xlink:href="#linear-gradient"/>
    <clipPath id="clip-path-10">
      <path id="Path_10" data-name="Path 10" d="M102.415,372.857v.758h1.9v6.393H99.307v-6.393h1.929v-.758H93.659v.758h1.929v14.1H93.659v.758h7.577v-.758H99.307v-6.894h5.011v6.894h-1.9v.758h7.551v-.758h-1.929v-14.1h1.929v-.758Z" fill="none"/>
    </clipPath>
    <linearGradient id="linear-gradient-10" x1="-5.743" y1="1.344" x2="-5.682" y2="1.344" xlink:href="#linear-gradient"/>
    <clipPath id="clip-path-11">
      <path id="Path_11" data-name="Path 11" d="M29.415,362.849c-.018-.319.124-.488.428-.506a1.1,1.1,0,0,1,.833.475,1.565,1.565,0,0,1,.342,1.764q-1.566-1.094-1.6-1.733m1.417-2.425a2.385,2.385,0,0,0-1.767,1.249,4.243,4.243,0,0,0-.71,2.676,2.646,2.646,0,0,0,1.6,2.093,15.149,15.149,0,0,1-2.015,2.138A14.836,14.836,0,0,1,25.32,370.6l1.609-.1q1.344-.083,4.043-3.534l1.894,1.017c.007-.119.029-.389.064-.811a4.581,4.581,0,0,0,.042-.788.955.955,0,0,0-.26-.68q-.392-.3-.783-.569a9.587,9.587,0,0,0,.531-2.635A2.524,2.524,0,0,0,31.909,361a1.332,1.332,0,0,0-1.015-.581l-.062,0" fill="none"/>
    </clipPath>
    <linearGradient id="linear-gradient-11" x1="-3.304" y1="3.286" x2="-3.173" y2="3.286" xlink:href="#linear-gradient"/>
    <clipPath id="clip-path-12">
      <path id="Path_12" data-name="Path 12" d="M96.745,362.849c-.019-.319.124-.488.427-.506a1.1,1.1,0,0,1,.834.475,1.57,1.57,0,0,1,.342,1.764q-1.567-1.094-1.6-1.733m1.417-2.425a2.387,2.387,0,0,0-1.768,1.249,4.243,4.243,0,0,0-.71,2.676,2.645,2.645,0,0,0,1.6,2.093,15.166,15.166,0,0,1-2.016,2.138A14.835,14.835,0,0,1,92.65,370.6l1.609-.1q1.344-.083,4.042-3.534l1.894,1.017c.008-.119.03-.389.064-.811a4.706,4.706,0,0,0,.043-.788.963.963,0,0,0-.26-.68q-.393-.3-.783-.569a9.587,9.587,0,0,0,.531-2.635A2.532,2.532,0,0,0,99.238,361a1.33,1.33,0,0,0-1.014-.581l-.062,0" fill="none"/>
    </clipPath>
    <linearGradient id="linear-gradient-12" x1="-12.091" y1="3.286" x2="-11.96" y2="3.286" xlink:href="#linear-gradient"/>
    <clipPath id="clip-path-13">
      <path id="Path_13" data-name="Path 13" d="M56.261,365.4a1.629,1.629,0,0,1,.371-.985,1.1,1.1,0,0,1,.9-.493,2.254,2.254,0,0,1,1.358.728,1.968,1.968,0,0,1,.8,1.328q0,.708-1.213.707-2.223,0-2.222-1.285m-.007-1.907a5.1,5.1,0,0,0-.841,2.881q0,2.416,2.243,2.416A3.063,3.063,0,0,0,60,367.754a3.38,3.38,0,0,0,.956-2.351,3.452,3.452,0,0,0-.769-2.214,2.337,2.337,0,0,0-1.891-.965,2.428,2.428,0,0,0-2.045,1.272" fill="none"/>
    </clipPath>
    <linearGradient id="linear-gradient-13" x1="-9.992" y1="4.814" x2="-9.811" y2="4.814" xlink:href="#linear-gradient"/>
    <clipPath id="clip-path-14">
      <path id="Path_14" data-name="Path 14" d="M75.347,365.271a16.562,16.562,0,0,0-1.632,1.481,2.126,2.126,0,0,0-.327,1.99l3.776-3.145a11.805,11.805,0,0,0,2.129-2.071,1.966,1.966,0,0,0,.109-1.655Z" fill="none"/>
    </clipPath>
    <linearGradient id="linear-gradient-14" x1="-11.37" y1="4.654" x2="-11.215" y2="4.654" xlink:href="#linear-gradient"/>
    <clipPath id="clip-path-15">
      <path id="Path_15" data-name="Path 15" d="M15.121,281.241,5.4,290.957a1.118,1.118,0,0,0,0,1.58l9.717,9.716a1.115,1.115,0,0,0,1.579,0l9.717-9.716a1.118,1.118,0,0,0,0-1.58L16.7,281.241a1.117,1.117,0,0,0-1.579,0" fill="none"/>
    </clipPath>
    <linearGradient id="linear-gradient-15" x1="-0.227" y1="5.186" x2="-0.181" y2="5.186" xlink:href="#linear-gradient"/>
    <clipPath id="clip-path-16">
      <path id="Path_16" data-name="Path 16" d="M28.815,267.546,19.1,277.263a1.115,1.115,0,0,0,0,1.579l9.716,9.717a1.118,1.118,0,0,0,1.58,0l9.716-9.717a1.115,1.115,0,0,0,0-1.579L30.4,267.546a1.118,1.118,0,0,0-1.58,0" fill="none"/>
    </clipPath>
    <linearGradient id="linear-gradient-16" x1="-0.853" y1="5.815" x2="-0.807" y2="5.815" xlink:href="#linear-gradient"/>
    <clipPath id="clip-path-17">
      <path id="Path_17" data-name="Path 17" d="M92.466,73.628l-9.717,9.717a1.117,1.117,0,0,0,0,1.579l9.717,9.716a1.115,1.115,0,0,0,1.579,0l9.717-9.716a1.117,1.117,0,0,0,0-1.579l-9.717-9.717a1.117,1.117,0,0,0-1.579,0" fill="none"/>
    </clipPath>
    <linearGradient id="linear-gradient-17" x1="-3.761" y1="14.72" x2="-3.715" y2="14.72" xlink:href="#linear-gradient"/>
  </defs>
  <g id="Group_5" data-name="Group 5">
    <g id="Group_4" data-name="Group 4" clip-path="url(#clip-path)">
      <rect id="Rectangle_3" data-name="Rectangle 3" width="118.042" height="160.27" transform="translate(-0.23 0.001)" fill="url(#linear-gradient)"/>
    </g>
  </g>
  <g id="Group_7" data-name="Group 7">
    <g id="Group_6" data-name="Group 6" clip-path="url(#clip-path-2)">
      <rect id="Rectangle_4" data-name="Rectangle 4" width="118.042" height="160.271" transform="translate(-0.23 139.591)" fill="url(#linear-gradient-2)"/>
    </g>
  </g>
  <g id="Group_9" data-name="Group 9">
    <g id="Group_8" data-name="Group 8" clip-path="url(#clip-path-3)">
      <rect id="Rectangle_5" data-name="Rectangle 5" width="124.288" height="178.509" transform="translate(-7.417 76.097)" fill="url(#linear-gradient-3)"/>
    </g>
  </g>
  <g id="Group_11" data-name="Group 11">
    <g id="Group_10" data-name="Group 10" clip-path="url(#clip-path-4)">
      <rect id="Rectangle_6" data-name="Rectangle 6" width="124.288" height="178.51" transform="translate(-7.417 215.34)" fill="url(#linear-gradient-4)"/>
    </g>
  </g>
  <g id="Group_13" data-name="Group 13">
    <g id="Group_12" data-name="Group 12" clip-path="url(#clip-path-5)">
      <rect id="Rectangle_7" data-name="Rectangle 7" width="13.832" height="15.619" transform="translate(12.352 372.857)" fill="url(#linear-gradient-5)"/>
    </g>
  </g>
  <g id="Group_15" data-name="Group 15">
    <g id="Group_14" data-name="Group 14" clip-path="url(#clip-path-6)">
      <rect id="Rectangle_8" data-name="Rectangle 8" width="15.579" height="15.83" transform="translate(27.124 372.857)" fill="url(#linear-gradient-6)"/>
    </g>
  </g>
  <g id="Group_17" data-name="Group 17">
    <g id="Group_16" data-name="Group 16" clip-path="url(#clip-path-7)">
      <rect id="Rectangle_9" data-name="Rectangle 9" width="16.303" height="15.619" transform="translate(43.589 372.857)" fill="url(#linear-gradient-7)"/>
    </g>
  </g>
  <g id="Group_19" data-name="Group 19">
    <g id="Group_18" data-name="Group 18" clip-path="url(#clip-path-8)">
      <rect id="Rectangle_10" data-name="Rectangle 10" width="15.444" height="15.688" transform="translate(60.959 372.857)" fill="url(#linear-gradient-8)"/>
    </g>
  </g>
  <g id="Group_21" data-name="Group 21">
    <g id="Group_20" data-name="Group 20" clip-path="url(#clip-path-9)">
      <rect id="Rectangle_11" data-name="Rectangle 11" width="15.523" height="15.91" transform="translate(77.127 372.566)" fill="url(#linear-gradient-9)"/>
    </g>
  </g>
  <g id="Group_23" data-name="Group 23">
    <g id="Group_22" data-name="Group 22" clip-path="url(#clip-path-10)">
      <rect id="Rectangle_12" data-name="Rectangle 12" width="16.307" height="15.619" transform="translate(93.659 372.857)" fill="url(#linear-gradient-10)"/>
    </g>
  </g>
  <g id="Group_25" data-name="Group 25">
    <g id="Group_24" data-name="Group 24" clip-path="url(#clip-path-11)">
      <rect id="Rectangle_13" data-name="Rectangle 13" width="7.664" height="10.173" transform="translate(25.32 360.422)" fill="url(#linear-gradient-11)"/>
    </g>
  </g>
  <g id="Group_27" data-name="Group 27">
    <g id="Group_26" data-name="Group 26" clip-path="url(#clip-path-12)">
      <rect id="Rectangle_14" data-name="Rectangle 14" width="7.663" height="10.173" transform="translate(92.65 360.422)" fill="url(#linear-gradient-12)"/>
    </g>
  </g>
  <g id="Group_29" data-name="Group 29">
    <g id="Group_28" data-name="Group 28" clip-path="url(#clip-path-13)">
      <rect id="Rectangle_15" data-name="Rectangle 15" width="5.546" height="6.569" transform="translate(55.413 362.224)" fill="url(#linear-gradient-13)"/>
    </g>
  </g>
  <g id="Group_31" data-name="Group 31">
    <g id="Group_30" data-name="Group 30" clip-path="url(#clip-path-14)">
      <rect id="Rectangle_16" data-name="Rectangle 16" width="6.435" height="6.871" transform="translate(73.166 361.871)" fill="url(#linear-gradient-14)"/>
    </g>
  </g>
  <g id="Group_33" data-name="Group 33">
    <g id="Group_32" data-name="Group 32" clip-path="url(#clip-path-15)">
      <rect id="Rectangle_17" data-name="Rectangle 17" width="21.885" height="21.776" transform="translate(4.968 280.914)" fill="url(#linear-gradient-15)"/>
    </g>
  </g>
  <g id="Group_35" data-name="Group 35">
    <g id="Group_34" data-name="Group 34" clip-path="url(#clip-path-16)">
      <rect id="Rectangle_18" data-name="Rectangle 18" width="21.886" height="21.776" transform="translate(18.662 267.219)" fill="url(#linear-gradient-16)"/>
    </g>
  </g>
  <g id="Group_37" data-name="Group 37">
    <g id="Group_36" data-name="Group 36" clip-path="url(#clip-path-17)">
      <rect id="Rectangle_19" data-name="Rectangle 19" width="21.885" height="21.776" transform="translate(82.313 73.301)" fill="url(#linear-gradient-17)"/>
    </g>
  </g>
</svg>
